<svg xmlns="http://www.w3.org/2000/svg" viewBox="0 0 64 64" width="64" height="64">
  <!-- Background circle -->
  <circle cx="32" cy="32" r="30" fill="#1976d2" stroke="#0d47a1" stroke-width="2"/>
  
  <!-- Calendar base -->
  <rect x="16" y="20" width="32" height="28" rx="2" fill="#ffffff"/>
  <rect x="16" y="20" width="32" height="8" rx="2" fill="#0d47a1"/>
  
  <!-- Calendar rings -->
  <rect x="22" y="16" width="2" height="8" rx="1" fill="#666"/>
  <rect x="28" y="16" width="2" height="8" rx="1" fill="#666"/>
  <rect x="34" y="16" width="2" height="8" rx="1" fill="#666"/>
  <rect x="40" y="16" width="2" height="8" rx="1" fill="#666"/>
  
  <!-- Calendar grid -->
  <line x1="20" y1="32" x2="44" y2="32" stroke="#e0e0e0" stroke-width="1"/>
  <line x1="20" y1="36" x2="44" y2="36" stroke="#e0e0e0" stroke-width="1"/>
  <line x1="20" y1="40" x2="44" y2="40" stroke="#e0e0e0" stroke-width="1"/>
  <line x1="24" y1="28" x2="24" y2="44" stroke="#e0e0e0" stroke-width="1"/>
  <line x1="28" y1="28" x2="28" y2="44" stroke="#e0e0e0" stroke-width="1"/>
  <line x1="32" y1="28" x2="32" y2="44" stroke="#e0e0e0" stroke-width="1"/>
  <line x1="36" y1="28" x2="36" y2="44" stroke="#e0e0e0" stroke-width="1"/>
  <line x1="40" y1="28" x2="40" y2="44" stroke="#e0e0e0" stroke-width="1"/>
  
  <!-- Event indicators -->
  <circle cx="22" cy="34" r="1.5" fill="#f44336"/>
  <circle cx="30" cy="38" r="1.5" fill="#4caf50"/>
  <circle cx="38" cy="34" r="1.5" fill="#ff9800"/>
  <circle cx="26" cy="42" r="1.5" fill="#9c27b0"/>
  
  <!-- Anna University text (simplified) -->
  <text x="32" y="56" text-anchor="middle" font-family="Arial, sans-serif" font-size="6" fill="#ffffff" font-weight="bold">AU</text>
</svg>
