<svg xmlns="http://www.w3.org/2000/svg" viewBox="0 0 32 32" width="32" height="32">
  <!-- Background circle -->
  <circle cx="16" cy="16" r="15" fill="#1976d2" stroke="#0d47a1" stroke-width="1"/>
  
  <!-- Calendar base -->
  <rect x="8" y="10" width="16" height="14" rx="1" fill="#ffffff"/>
  <rect x="8" y="10" width="16" height="4" rx="1" fill="#0d47a1"/>
  
  <!-- Calendar rings -->
  <rect x="11" y="8" width="1" height="4" rx="0.5" fill="#666"/>
  <rect x="14" y="8" width="1" height="4" rx="0.5" fill="#666"/>
  <rect x="17" y="8" width="1" height="4" rx="0.5" fill="#666"/>
  <rect x="20" y="8" width="1" height="4" rx="0.5" fill="#666"/>
  
  <!-- Calendar grid -->
  <line x1="10" y1="16" x2="22" y2="16" stroke="#e0e0e0" stroke-width="0.5"/>
  <line x1="10" y1="18" x2="22" y2="18" stroke="#e0e0e0" stroke-width="0.5"/>
  <line x1="10" y1="20" x2="22" y2="20" stroke="#e0e0e0" stroke-width="0.5"/>
  <line x1="12" y1="14" x2="12" y2="22" stroke="#e0e0e0" stroke-width="0.5"/>
  <line x1="14" y1="14" x2="14" y2="22" stroke="#e0e0e0" stroke-width="0.5"/>
  <line x1="16" y1="14" x2="16" y2="22" stroke="#e0e0e0" stroke-width="0.5"/>
  <line x1="18" y1="14" x2="18" y2="22" stroke="#e0e0e0" stroke-width="0.5"/>
  <line x1="20" y1="14" x2="20" y2="22" stroke="#e0e0e0" stroke-width="0.5"/>
  
  <!-- Event indicators -->
  <circle cx="11" cy="17" r="0.8" fill="#f44336"/>
  <circle cx="15" cy="19" r="0.8" fill="#4caf50"/>
  <circle cx="19" cy="17" r="0.8" fill="#ff9800"/>
  <circle cx="13" cy="21" r="0.8" fill="#9c27b0"/>
  
  <!-- Anna University text -->
  <text x="16" y="28" text-anchor="middle" font-family="Arial, sans-serif" font-size="3" fill="#ffffff" font-weight="bold">AU</text>
</svg>
